<?xml version="1.0" encoding="UTF-8"?>
<svg id="Layer_2" data-name="Layer 2" xmlns="http://www.w3.org/2000/svg" viewBox="0 0 240.86 240.8">
  <defs>
    <style>
      .cls-1 {
        fill: #fff;
        stroke-width: 0px;
      }
    </style>
  </defs>
  <g id="Layer_1-2" data-name="Layer 1">
    <g>
      <path class="cls-1" d="M240.86,111.96c-.64,4.16-1.15,8.35-1.93,12.49-3.75,19.76-10.39,38.35-22.77,54.48-7.05,9.19-15.69,16.37-26.89,20.07-.62.21-1.08.9-1.62,1.37.65.4,1.27,1.07,1.96,1.16,3.88.5,7.78.88,11.68,1.25,2.13.2,3.78,1,4.49,3.15.66,1.99-.21,3.49-1.6,4.81-13.11,12.45-28.48,20.31-46.53,22.45-14.06,1.66-27.61-.79-40.75-5.79-2.56-.97-5.06-2.08-7.97-3.28,1.45-.96,2.63-1.79,3.85-2.55,26.3-16.34,50.29-35.52,71.51-58.09,1.28-1.37,2.45-3.15,2.89-4.93.75-3.06-1.01-5.97-3.79-7.35-2.73-1.35-5.64-.91-7.98,1.4-4.12,4.08-8.09,8.32-12.26,12.35-18.92,18.25-39.87,33.86-62.31,47.49-.45.27-.94.47-1.8.89-.25-2.72-.61-5.19-.68-7.66-.53-16.85,4.47-32.29,12.58-46.78,3.51-6.27,7.75-12.13,11.68-18.15,1.11-1.7,2.64-2.76,4.75-2.3,2.06.45,3.08,1.9,3.53,3.93.63,2.82,1.38,5.62,2.16,8.4.15.52.59,1.24,1.02,1.33.38.08,1.15-.47,1.35-.92,6.42-14.1,17.95-23.28,30.38-31.57,13.47-8.98,28.14-15.14,44.24-17.16,8.2-1.03,16.55-.97,24.83-1.19,2.99-.08,4.71,2.12,5.98,4.6v6.12Z"/>
      <path class="cls-1" d="M166.52,0c2.89,1.64,5.26,3.71,5.05,7.39-.22,3.89-3.01,5.57-6.16,7.19-7.48,3.84-14.82,7.97-22.23,11.96-.74.4-1.55.66-2.32.98h.02c-.55-5.49-4.44-8.24-9.67-10.93,10.89-5.73,21.22-11.16,31.54-16.59,1.25,0,2.51,0,3.76,0Z"/>
      <path class="cls-1" d="M140.87,27.51c.31,5.13,1.22,10.3.83,15.37-1.67,21.69-11.44,40.06-24.14,57.16-1.2,1.61-2.73,2.39-4.68,1.95-1.86-.41-2.86-1.73-3.3-3.58-.68-2.89-1.42-5.77-2.21-8.63-.14-.52-.61-1.22-1.03-1.31-.39-.08-1.15.46-1.36.91-6.36,13.93-17.75,23.04-30.02,31.29-14.75,9.91-30.95,16.05-48.63,17.88-6.6.68-13.3.59-19.96.59-3.95,0-6.55-2.88-6.37-6.89.65-14.75,3.99-28.94,9.27-42.69,5.07-13.21,11.8-25.42,22.04-35.41,5.62-5.48,12.04-9.73,19.55-12.22.22-.07.5-.09.66-.23.54-.47,1.04-.99,1.55-1.49-.64-.37-1.25-.98-1.92-1.07-3.42-.43-6.85-.73-10.28-1.07-.7-.07-1.4-.13-2.1-.22-1.86-.24-3.3-1.14-3.84-2.99-.56-1.9.1-3.47,1.56-4.84,5.44-5.14,11.35-9.62,17.92-13.21,21-11.45,42.8-12.29,65.18-4.79,3.96,1.33,7.81,3.01,12.21,4.72-1.21.8-1.88,1.27-2.58,1.7-26.86,16.75-51.53,36.2-73.22,59.33-4.25,4.53-2.96,10.76,2.62,12.31,2.97.82,5.27-.37,7.38-2.43,7.45-7.29,14.76-14.74,22.51-21.69,15.27-13.68,31.88-25.6,49.36-36.3,1.05-.64,2.02-1.42,3.02-2.14,0,0-.02-.01-.02-.01Z"/>
      <path class="cls-1" d="M99.28,213.7c1.14,5.17,4.66,8.28,9.79,10.34-3,1.77-5.56,3.39-8.23,4.82-6.88,3.7-13.77,7.39-20.74,10.93-4.2,2.13-8.41.8-10.21-2.94-1.87-3.86-.13-7.69,4.25-9.95,8.33-4.29,16.6-8.71,25.14-13.2Z"/>
    </g>
  </g>
</svg>