<?xml version="1.0" encoding="UTF-8"?>
<svg id="Layer_2" data-name="Layer 2" xmlns="http://www.w3.org/2000/svg" viewBox="0 0 295.32 277.64">
  <defs>
    <style>
      .cls-1 {
        fill: #fff;
        stroke-width: 0px;
      }
    </style>
  </defs>
  <g id="Layer_1-2" data-name="Layer 1">
    <path class="cls-1" d="M0,162.96c0-10.11,0-20.21,0-30.32,2.15-4.86,3.62-10.19,6.6-14.48,5.85-8.43,14.63-12.19,25.05-12.7,0-5.08,0-10,0-14.92.04-18.69,13.73-32.35,32.47-32.36,23.07-.02,46.14,0,69.21,0,1.17,0,2.34,0,3.79,0,0-5.17-.15-9.98.06-14.78.11-2.65-.64-4.3-2.84-5.98-7.79-5.97-10.02-17.02-5.55-25.83,4.54-8.95,14.84-13.55,24.46-10.77,8.52,2.45,13.74,8.24,15.21,16.85,1.4,8.2-1.47,15.1-8.07,20.36-.87.69-2.06,1.7-2.09,2.59-.19,5.78-.1,11.56-.1,17.58h3.95c22.85,0,45.7,0,68.55,0,19.45,0,32.94,13.46,32.96,32.86,0,4.8,0,9.6,0,14.36.7.12,1.01.21,1.33.23,17.44,1.03,30.24,14.49,30.31,31.89.03,7.03.05,14.06,0,21.09-.07,9.42-3.75,17.24-10.73,23.51-5.86,5.25-12.87,7.69-20.89,8.01,0,4.9,0,9.6,0,14.3-.02,19.6-13.47,33-33.15,33-32.96,0-65.91.03-98.87-.05-2.31,0-3.82.68-5.29,2.44-7.05,8.42-14.38,16.6-21.34,25.1-4.74,5.78-9.75,10.95-17.34,12.73h-6.59c-.7-.26-1.38-.56-2.09-.78-8.34-2.65-13.76-8.14-15.37-16.78-.65-3.51-.29-7.22-.32-10.84-.04-3.9,0-7.81,0-11.72-6.78-.19-12.64-1.9-17.78-5.54-8.92-6.3-13.7-14.91-13.85-25.92-.07-5.33-.01-10.66-.01-15.88-13.94-1.02-23.72-7.34-29.26-19.75-1.06-2.37-1.61-4.97-2.39-7.46ZM147.62,200.54c15.98-.37,30.02-5.68,41.85-16.55,4.84-4.45,5.42-10.81,1.51-15.24-4.07-4.6-10.46-4.73-15.54-.33-16.51,14.31-39.07,14.33-55.52.04-5.08-4.42-11.52-4.32-15.54.24-3.95,4.48-3.41,10.8,1.42,15.24,11.82,10.85,25.84,16.21,41.83,16.6ZM131.81,126.66c-.03-8.52-7.24-15.72-15.77-15.74-8.63-.02-15.93,7.36-15.83,16.02.09,8.35,7.26,15.51,15.61,15.58,8.67.08,16.03-7.22,16-15.86ZM195.11,126.74c-.04-8.57-7.16-15.76-15.7-15.83-8.64-.07-16.02,7.31-15.91,15.93.1,8.53,7.3,15.64,15.86,15.67,8.46.02,15.78-7.31,15.74-15.77ZM31.51,126.9c-6.18.45-10.22,4.32-10.37,10.26-.17,7.13-.19,14.26,0,21.39.16,5.91,4.5,9.94,10.36,10.05v-41.7ZM263.85,126.86v41.86c6.42-.65,10.25-4.56,10.35-10.72.12-6.8.11-13.6,0-20.4-.1-6.15-3.92-10.07-10.35-10.75Z"/>
  </g>
</svg>