<?xml version="1.0" encoding="UTF-8"?>
<svg id="Layer_2" data-name="Layer 2" xmlns="http://www.w3.org/2000/svg" viewBox="0 0 297.67 295.16">
  <defs>
    <style>
      .cls-1 {
        fill: #fff;
        stroke-width: 0px;
      }
    </style>
  </defs>
  <g id="Layer_1-2" data-name="Layer 1">
    <g>
      <path class="cls-1" d="M0,88.8c1.51-5.26,3.08-10.47,6.59-14.87,6.43-8.04,14.68-12.63,25.02-12.68,28.6-.14,57.21-.07,85.81-.07.49,0,.98.05,2.06.11-29.79,43.4-59.36,86.5-89.28,130.1h73.01c-3.46,14.46-6.81,28.47-10.19,42.63-3.58,0-6.97,0-10.37,0-16.2,0-32.41-.31-48.6.08-17.9.43-31.47-12.53-33.58-26.94-.04-.26-.31-.49-.47-.74,0-39.21,0-78.42,0-117.62Z"/>
      <path class="cls-1" d="M272.47,111.02c2.68,0,5.05-.02,7.42,0,9.96.11,17.71,7.78,17.74,17.67.05,12.6.05,25.2,0,37.8-.04,9.88-7.81,17.59-17.75,17.68-2.37.02-4.75,0-7.42,0,0,5.67.02,11.05,0,16.42-.07,17.35-10.69,30.03-27.75,33.1-1.37.25-2.78.3-4.17.3-28.4.02-56.8.02-85.2.02-.58,0-1.17,0-2.4,0,29.86-43.51,59.43-86.6,89.36-130.21h-73.01c3.46-14.46,6.81-28.48,10.17-42.51.94-.05,1.63-.11,2.32-.11,19.2,0,38.4-.07,57.6.02,17.07.08,29.74,10.69,32.69,27.46.62,3.5.34,7.17.39,10.76.06,3.7.01,7.4.01,11.61Z"/>
      <path class="cls-1" d="M93.13,294.96c9.35-39.05,18.69-78.11,28.13-117.56H57.14C98.02,117.85,138.46,58.92,178.9,0c.15.07.3.13.45.2-9.35,39.11-18.7,78.21-28.15,117.76h64.04c-40.81,59.45-81.21,118.32-121.62,177.19-.16-.06-.32-.13-.49-.19Z"/>
    </g>
  </g>
</svg>