<?xml version="1.0" encoding="UTF-8"?>
<svg id="Layer_2" data-name="Layer 2" xmlns="http://www.w3.org/2000/svg" viewBox="0 0 272.04 243.94">
  <defs>
    <style>
      .cls-1 {
        fill: #fff;
        stroke-width: 0px;
      }
    </style>
  </defs>
  <g id="Layer_1-2" data-name="Layer 1">
    <g>
      <path class="cls-1" d="M0,104.98c.42-1.33.81-2.67,1.26-3.99,3.53-10.48,10.72-16.97,21.84-20.1,0,1.52,0,2.57,0,3.63,0,18.3-.09,36.61.03,54.91.16,25.85,17.07,47.48,42.06,53.77,3.88.98,7.97,1.55,11.97,1.57,23.47.15,46.93.09,70.4.1,7.46,0,14.66,1.35,21.53,4.31,1.36.59,2.67,1.3,4.28,2.1-5.44,9.3-13.11,14.94-23.55,15.23-17.08.47-34.19.3-51.28.15-13.99-.12-26.47,3.73-37.26,12.78-2.55,2.14-5.18,4.21-7.89,6.16-3.98,2.86-8.06,5.58-12.09,8.35h-6.07c-.34-.2-.65-.46-1.01-.59-6.6-2.48-9.83-7.04-9.87-13.99-.02-3.43-.08-6.87.03-10.29.06-1.85-.35-2.69-2.43-3.27-11.08-3.13-18.13-10.43-21.21-21.54-.18-.65-.47-1.27-.71-1.9,0-29.13,0-58.26,0-87.38Z"/>
      <path class="cls-1" d="M239.49,175.58c0,6.81.07,13.37-.02,19.94-.11,8.51-4.46,14.17-12.13,15.89-4.79,1.07-8.97-.38-12.73-3.32-7.16-5.61-14.35-11.19-21.49-16.83-13.52-10.68-28.95-15.68-46.12-15.64-22.35.05-44.71.06-67.06,0-16.75-.05-30.17-9.1-35.32-24.04-1.26-3.66-2-7.68-2.01-11.54-.15-34.89-.13-69.78-.07-104.66C42.56,16.1,58.66.04,77.96.03c52.8-.04,105.6-.04,158.4,0,19.48.01,35.53,16.06,35.55,35.52.03,34.18-.28,68.36.13,102.54.22,18.45-12.49,34.04-30.13,37.01-.69.12-1.36.28-2.41.49ZM157.19,77.12c18.6,0,37.2.03,55.8-.01,6.05-.01,10.15-4.3,9.91-10.18-.22-5.34-4.41-9.07-10.44-9.09-13.04-.05-26.08-.02-39.12-.02-23.55,0-47.11.02-70.66-.02-3.75,0-7.03.88-9.33,4.02-2.21,3.02-2.56,6.4-.95,9.73,1.77,3.65,4.81,5.58,8.98,5.58,18.6-.01,37.2,0,55.8,0ZM128.98,117.84s0,.02,0,.03c9.2,0,18.4.04,27.6-.02,6.12-.04,10.3-3.96,10.35-9.5.05-5.52-4.21-9.61-10.23-9.62-18.4-.04-36.81-.03-55.21.01-1.29,0-2.65.17-3.84.62-4.42,1.66-6.73,5.91-6.02,10.7.65,4.35,4.42,7.7,9.14,7.75,9.4.1,18.81.03,28.21.03Z"/>
    </g>
  </g>
</svg>